<svg width="512" height="512" viewBox="0 0 512 512" fill="none" xmlns="http://www.w3.org/2000/svg">
<g clip-path="url(#clip0)">
<mask id="mask0" mask-type="alpha" maskUnits="userSpaceOnUse" x="48" y="183" width="288" height="289">
<path d="M192 471.998C271.529 471.998 336 407.527 336 327.998C336 248.469 271.529 183.998 192 183.998C112.471 183.998 48 248.469 48 327.998C48 407.527 112.471 471.998 192 471.998Z" fill="white"/>
</mask>
<g mask="url(#mask0)">
<path d="M192 471.998C271.529 471.998 336 407.527 336 327.998C336 248.469 271.529 183.998 192 183.998C112.471 183.998 48 248.469 48 327.998C48 407.527 112.471 471.998 192 471.998Z" fill="#80D25B"/>
<path fill-rule="evenodd" clip-rule="evenodd" d="M266.586 287.98C266.586 287.98 232.538 273.719 222.397 280.849C212.255 287.98 217.673 321.649 217.673 321.649C217.673 321.649 202.559 343.881 210.116 355.574C217.673 367.267 238.665 363.247 250.459 373.561C262.253 383.875 257.353 402.386 257.353 402.386L254.501 423.998C254.501 423.998 286.091 409.47 295.193 388.539C304.295 367.608 301.347 334.792 301.347 334.792L319.786 317.635L336 263.668L279.101 244.783L272.832 215.998L232.144 227.835L228.467 259.23L259.718 269.849L266.586 287.98ZM40 303.998C40 303.998 52.104 296.646 53.7195 296.529C66.1137 295.631 109.303 298.141 120.596 282.544C133.36 264.913 144 241.566 144 241.566L143.572 223.603L76.8313 207.998L40 303.998Z" fill="#22BA8E"/>
</g>
<path fill-rule="evenodd" clip-rule="evenodd" d="M288.51 182.069C314.048 211.446 367.591 214.708 397.195 188.974C426.799 163.24 466.42 45.2975 466.42 45.2975C466.42 45.2975 341.774 53.0148 306.954 77.1903C272.134 101.366 262.973 152.692 288.51 182.069Z" fill="#80D25B"/>
<path d="M435.368 68.2312C435.368 68.2312 354.158 95.8622 309.6 170.996C298.136 190.327 284.696 202.906 271.057 210.927" stroke="#22BA8E" stroke-width="2" stroke-linecap="round"/>
<path d="M371.197 168.363L324.433 155.227L311.84 105.397" stroke="#22BA8E" stroke-width="2" stroke-linecap="round"/>
<path d="M397.585 125.193L363.633 110.761L358.014 83.2151" stroke="#22BA8E" stroke-width="2" stroke-linecap="round"/>
</g>
<defs>
<clipPath id="clip0">
<rect width="512" height="512" fill="white"/>
</clipPath>
</defs>
</svg>
