<svg width="512" height="512" viewBox="0 0 512 512" fill="none" xmlns="http://www.w3.org/2000/svg">
<g clip-path="url(#clip0)">
<path fill-rule="evenodd" clip-rule="evenodd" d="M99.3376 109.277C109.709 128.783 134.659 135.8 155.064 124.95C175.47 114.1 219.419 45.4291 219.419 45.4291C219.419 45.4291 137.913 43.4638 117.507 54.3138C97.1009 65.1637 88.9664 89.7717 99.3376 109.277Z" fill="#80D25B"/>
<path d="M133.809 91.2201C115.164 95.5248 99.0517 104.991 86.6342 117.761" stroke="#22BA8E" stroke-width="2" stroke-linecap="round"/>
<path fill-rule="evenodd" clip-rule="evenodd" d="M364.709 62.2392C351.415 79.8822 355.599 105.46 374.057 119.368C392.514 133.277 473.324 144.086 473.324 144.086C473.324 144.086 440.659 69.386 422.202 55.4774C403.745 41.5689 378.004 44.5962 364.709 62.2392Z" fill="#80D25B"/>
<path d="M395.643 85.8501C383.862 70.7706 368.473 60.1688 351.652 54.3114" stroke="#22BA8E" stroke-width="2" stroke-linecap="round"/>
<path fill-rule="evenodd" clip-rule="evenodd" d="M477.639 260.607C456.204 255.263 434.295 269.109 428.704 291.533C423.113 313.958 444.738 392.567 444.738 392.567C444.738 392.567 500.737 333.311 506.328 310.887C511.919 288.462 499.075 265.951 477.639 260.607Z" fill="#80D25B"/>
<path d="M467.993 298.306C477.27 281.57 481.016 263.262 479.835 245.489" stroke="#22BA8E" stroke-width="2" stroke-linecap="round"/>
<path fill-rule="evenodd" clip-rule="evenodd" d="M88.7392 362.981C108.595 353.297 116.478 328.607 106.347 307.835C96.2156 287.063 29.1207 240.745 29.1207 240.745C29.1207 240.745 24.3121 322.133 34.4433 342.905C44.5745 363.677 68.8836 372.666 88.7392 362.981Z" fill="#80D25B"/>
<path d="M71.8959 327.901C75.5472 346.685 84.4452 363.118 96.7738 375.973" stroke="#22BA8E" stroke-width="2" stroke-linecap="round"/>
<path fill-rule="evenodd" clip-rule="evenodd" d="M320.345 443.987C317.27 422.111 296.225 406.984 273.339 410.2C250.453 413.417 185.668 462.915 185.668 462.915C185.668 462.915 261.587 492.638 284.473 489.422C307.359 486.205 323.419 465.864 320.345 443.987Z" fill="#80D25B"/>
<path d="M281.776 449.166C300.769 451.498 319.147 448.113 335.183 440.361" stroke="#22BA8E" stroke-width="2" stroke-linecap="round"/>
<mask id="mask0" mask-type="alpha" maskUnits="userSpaceOnUse" x="120" y="104" width="288" height="288">
<path d="M264 392C343.529 392 408 327.529 408 248C408 168.471 343.529 104 264 104C184.471 104 120 168.471 120 248C120 327.529 184.471 392 264 392Z" fill="white"/>
</mask>
<g mask="url(#mask0)">
<path d="M264 392C343.529 392 408 327.529 408 248C408 168.471 343.529 104 264 104C184.471 104 120 168.471 120 248C120 327.529 184.471 392 264 392Z" fill="#80D25B"/>
<path fill-rule="evenodd" clip-rule="evenodd" d="M338.586 207.982C338.586 207.982 304.538 193.721 294.397 200.851C284.255 207.982 289.673 241.651 289.673 241.651C289.673 241.651 274.559 263.883 282.116 275.576C289.673 287.269 310.665 283.249 322.459 293.563C334.253 303.877 329.353 322.388 329.353 322.388L326.501 344C326.501 344 358.091 329.471 367.193 308.54C376.295 287.609 373.347 254.794 373.347 254.794L391.786 237.637L408 183.67L351.101 164.784L344.832 136L304.144 147.837L300.467 179.232L331.718 189.851L338.586 207.982ZM112 224C112 224 124.104 216.647 125.72 216.53C138.114 215.633 181.303 218.143 192.596 202.545C205.36 184.915 216 161.568 216 161.568L215.572 143.605L148.831 128L112 224Z" fill="#22BA8E"/>
</g>
</g>
<defs>
<clipPath id="clip0">
<rect width="512" height="512" fill="white"/>
</clipPath>
</defs>
</svg>
